<svg width="0" height="0" class="hidden">
    <symbol fill="inherit" id="edits" viewBox="0 0 24.00 24.00" xmlns="http://www.w3.org/2000/svg"
        stroke-width="0.00024000000000000003">
        <g id="SVGRepo_bgCarrier" stroke-width="0"></g>
        <g id="SVGRepo_tracerCarrier" stroke-linecap="round" stroke-linejoin="round"></g>
        <g id="SVGRepo_iconCarrier">
            <path fill-rule="evenodd" clip-rule="evenodd"
                d="M20.8477 1.87868C19.6761 0.707109 17.7766 0.707105 16.605 1.87868L2.44744 16.0363C2.02864 16.4551 1.74317 16.9885 1.62702 17.5692L1.03995 20.5046C0.760062 21.904 1.9939 23.1379 3.39334 22.858L6.32868 22.2709C6.90945 22.1548 7.44285 21.8693 7.86165 21.4505L22.0192 7.29289C23.1908 6.12132 23.1908 4.22183 22.0192 3.05025L20.8477 1.87868ZM18.0192 3.29289C18.4098 2.90237 19.0429 2.90237 19.4335 3.29289L20.605 4.46447C20.9956 4.85499 20.9956 5.48815 20.605 5.87868L17.9334 8.55027L15.3477 5.96448L18.0192 3.29289ZM13.9334 7.3787L3.86165 17.4505C3.72205 17.5901 3.6269 17.7679 3.58818 17.9615L3.00111 20.8968L5.93645 20.3097C6.13004 20.271 6.30784 20.1759 6.44744 20.0363L16.5192 9.96448L13.9334 7.3787Z"
            ></path>
        </g>
    </symbol>


    <symbol
        id="card"
        viewBox="0 0 24 24"
        xmlns="http://www.w3.org/2000/svg"
    >
        <g id="SVGRepo_bgCarrier" stroke-width="0"></g>
        <g
            id="SVGRepo_tracerCarrier"
            stroke-linecap="round"
            stroke-linejoin="round"
        ></g>
        <g id="SVGRepo_iconCarrier">
            <path
                d="M3 8C3 6.34315 4.34315 5 6 5H18C19.6569 5 21 6.34315 21 8V16C21 17.6569 19.6569 19 18 19H6C4.34315 19 3 17.6569 3 16V8Z"
                stroke-width="2"
            ></path>
            <path d="M3 10H21" stroke="#000000" stroke-width="2"></path>
            <path
                d="M14 15L17 15"
                stroke-width="2"
                stroke-linecap="round"
            ></path>
        </g>
    </symbol>

    <symbol>
        <svg id="card2" viewBox="0 0 24 24" fill="none" xmlns="http://www.w3.org/2000/svg"
            stroke="#b8b8b8">
            <g id="SVGRepo_bgCarrier" stroke-width="0"></g>
            <g id="SVGRepo_tracerCarrier" stroke-linecap="round" stroke-linejoin="round"></g>
            <g id="SVGRepo_iconCarrier">

                <path
                    d="M2 12C2 8.22876 2 6.34315 3.17157 5.17157C4.34315 4 6.22876 4 10 4H14C17.7712 4 19.6569 4 20.8284 5.17157C22 6.34315 22 8.22876 22 12C22 15.7712 22 17.6569 20.8284 18.8284C19.6569 20 17.7712 20 14 20H10C6.22876 20 4.34315 20 3.17157 18.8284C2 17.6569 2 15.7712 2 12Z"
                    stroke="#b8b8b8" stroke-width="1.5"></path>
                <path d="M10 16H6" stroke="#b8b8b8" stroke-width="1.5" stroke-linecap="round"></path>
                <path d="M14 16H12.5" stroke="#b8b8b8" stroke-width="1.5" stroke-linecap="round"></path>
                <path d="M2 10L22 10" stroke="#b8b8b8" stroke-width="1.5" stroke-linecap="round"></path>
            </g>
        </svg>
    </symbol>

    <symbol viewBox="0 0 24 24" xmlns="http://www.w3.org/2000/svg" id="close">
        <g id="SVGRepo_bgCarrier" stroke-width="0"></g>
        <g id="SVGRepo_tracerCarrier" stroke-linecap="round" stroke-linejoin="round"></g>
        <g id="SVGRepo_iconCarrier">
            <path fill-rule="evenodd" clip-rule="evenodd"
                d="M19.207 6.207a1 1 0 0 0-1.414-1.414L12 10.586 6.207 4.793a1 1 0 0 0-1.414 1.414L10.586 12l-5.793 5.793a1 1 0 1 0 1.414 1.414L12 13.414l5.793 5.793a1 1 0 0 0 1.414-1.414L13.414 12l5.793-5.793z"
                fill="#000000"></path>
        </g>
    </symbol>

    <symbol>
        <svg viewBox="0 0 24 24" fill="none" xmlns="http://www.w3.org/2000/svg" id="order">
            <g id="SVGRepo_bgCarrier" stroke-width="0"></g>
            <g id="SVGRepo_tracerCarrier" stroke-linecap="round" stroke-linejoin="round"></g>
            <g id="SVGRepo_iconCarrier">
                <rect x="5" y="4" width="34" height="27" rx="2" stroke="#222222"></rect>
                <path d="M9 9H15" stroke="#222222" stroke-linecap="round"></path>
                <path d="M9 13H15" stroke="#222222" stroke-linecap="round"></path>
                <path d="M9 17H13" stroke="#222222" stroke-linecap="round"></path>
            </g>
        </svg>
    </symbol>

    <symbol
        viewBox="0 0 24 24"
        fill="none"
        xmlns="http://www.w3.org/2000/svg"
        id="logout">

        <path
            d="M14 20H6C4.89543 20 4 19.1046 4 18L4 6C4 4.89543 4.89543 4 6 4H14M10 12H21M21 12L18 15M21 12L18 9"
            stroke-width="2" stroke-linecap="round" stroke-linejoin="round"
        ></path>

    </symbol>

    <symbol>
        <svg
            viewBox="0 0 1024 1024"
            fill="#inherit"
            class="icon"
            version="1.1"
            xmlns="http://www.w3.org/2000/svg"
            stroke="#inherit"
            id="payment"
        >


            <path
                d="M959.018 208.158c0.23-2.721 0.34-5.45 0.34-8.172 0-74.93-60.96-135.89-135.89-135.89-1.54 0-3.036 0.06-6.522 0.213l-611.757-0.043c-1.768-0.085-3.563-0.17-5.424-0.17-74.812 0-135.67 60.84-135.67 135.712l0.188 10.952h-0.306l0.391 594.972-0.162 20.382c0 74.03 60.22 134.25 134.24 134.25 1.668 0 7.007-0.239 7.1-0.239l608.934 0.085c2.985 0.357 6.216 0.468 9.55 0.468 35.815 0 69.514-13.954 94.879-39.302 25.373-25.34 39.344-58.987 39.344-94.794l-0.145-12.015h0.918l-0.008-606.41z m-757.655 693.82l-2.585-0.203c-42.524 0-76.146-34.863-76.537-79.309V332.671H900.79l0.46 485.186-0.885 2.865c-0.535 1.837-0.8 3.58-0.8 5.17 0 40.382-31.555 73.766-71.852 76.002l-10.816 0.621v-0.527l-615.533-0.01zM900.78 274.424H122.3l-0.375-65.934 0.85-2.924c0.52-1.82 0.782-3.63 0.782-5.247 0-42.236 34.727-76.665 78.179-76.809l0.45-0.068 618.177 0.018 2.662 0.203c42.329 0 76.767 34.439 76.767 76.768 0 1.326 0.196 2.687 0.655 4.532l0.332 0.884v68.577z"
                fill=""
            ></path>
            <path
                d="M697.67 471.435c-7.882 0-15.314 3.078-20.918 8.682l-223.43 223.439L346.599 596.84c-5.544-5.603-12.95-8.69-20.842-8.69s-15.323 3.078-20.918 8.665c-5.578 5.518-8.674 12.9-8.7 20.79-0.017 7.908 3.07 15.357 8.69 20.994l127.55 127.558c5.57 5.56 13.01 8.622 20.943 8.622 7.925 0 15.364-3.06 20.934-8.63l244.247-244.247c5.578-5.511 8.674-12.883 8.7-20.783 0.017-7.942-3.079-15.408-8.682-20.986-5.552-5.612-12.958-8.698-20.85-8.698z"
                fill=""
            ></path>
        </svg>
    </symbol>

    <symbol>
        <svg
            fill="none"
            xmlns="http://www.w3.org/2000/svg"
            viewBox="0 0 24 24"
            id="account"
        >
            <path
                d="M5 21C5 17.134 8.13401 14 12 14C15.866 14 19 17.134 19 21M16 7C16 9.20914 14.2091 11 12 11C9.79086 11 8 9.20914 8 7C8 4.79086 9.79086 3 12 3C14.2091 3 16 4.79086 16 7Z"
                stroke-width="2"
                stroke-linecap="round"
                stroke-linejoin="round"
            />
        </svg>
    </symbol>


</svg>